<?xml version="1.0" encoding="UTF-8"?>
<svg id="Calque_2" data-name="Calque 2" xmlns="http://www.w3.org/2000/svg" viewBox="0 0 492.21 233.4">
  <defs>
    <style>
      .cls-1 {
        fill: #616264;
      }

      .cls-2 {
        fill: #cac9c6;
      }

      .cls-3 {
        fill: #ebeaea;
      }
    </style>
  </defs>
  <g id="Bercy">
    <g id="Bercy-2" data-name="Bercy">
      <polyline class="cls-1" points="294.66 207.49 144.45 172.43 0 138.72 29.77 170.17 253.71 229.29 309.06 210.85 294.66 207.49"/>
      <path class="cls-2" d="M441.6,129.23l-132.54,81.61-55.35,18.45,55.35,4.11,144.98-63.27,22.69-10.14c5.79-2.77,9.55-6.04,9.68-10.2v-44.42c0,12.48-19.68,22.73-44.8,23.86Z"/>
      <polygon class="cls-2" points="389.6 112.13 452.31 78.12 456.64 81.98 389.6 112.13"/>
      <path class="cls-3" d="M403.22,105.37l-13.37,6.63c6.27,10.04,25.01,17.33,47.16,17.33,27.28,0,49.4-11.06,49.4-24.69,0-10.15-12.25-18.87-29.77-22.66l-53.43,23.39Z"/>
      <polygon class="cls-2" points="456.64 81.98 492.21 64.12 419.67 28.01 419.67 97.73 456.64 81.98"/>
      <path class="cls-3" d="M301.85,155.67l88-43.66c9.87,12.64,27.84,17.71,51.76,17.23l-132.54,81.61L0,138.72l28.67-6.87,273.17,23.82"/>
      <polygon class="cls-2" points="301.85 155.67 261.21 148.21 377.65 32.06 203.33 17.19 23.23 105.32 43.24 108.92 43.24 128.36 28.67 131.85 301.85 192.41 389.6 141.8 389.6 112.13 301.85 155.67"/>
      <polygon class="cls-1" points="403.22 11.22 204.98 0 204.98 17.33 377.65 32.06 377.65 103.32 389.6 112.13 403.22 105.32 419.67 97.73 419.67 28.01 419.67 11.22 403.22 11.22"/>
      <polygon class="cls-3" points="419.67 98.36 403.98 106.36 403.98 11.22 419.67 11.22 419.67 98.36"/>
      <polygon class="cls-3" points="261.21 148.21 377.65 32.06 377.65 103.32 389.6 112.13 301.85 155.67 261.21 148.21"/>
    </g>
  </g>
</svg>