<?xml version="1.0" encoding="UTF-8"?>
<svg id="Calque_2" data-name="Calque 2" xmlns="http://www.w3.org/2000/svg" viewBox="0 0 395.03 169.52">
  <defs>
    <style>
      .cls-1 {
        fill: #b7b6b4;
      }

      .cls-2 {
        fill: #616264;
      }

      .cls-3 {
        fill: #cac9c6;
      }

      .cls-4 {
        fill: #ebeaea;
      }
    </style>
  </defs>
  <g id="defense_arena" data-name="defense arena">
    <g id="defense_arena-2" data-name="defense arena">
      <path class="cls-2" d="M367.51,48.34c-.29,2.46-1.04,4.83-2.29,7.02-10.06,16.78-41.27,21.11-61.7,24.15-20.44,3.05-57.44-.13-83.66-8.72-21.63-8-44.42-16.94-65.31-22.72-16.4-4.35-32.88-7.52-49.46-9.41-29.36-3.14-59.29-2-89.49,2.79,0,0-15.6,3.4-15.6,6.89s1.95,11,1.95,11c4.94-3.51,11.72-5.85,20.25-7.08,32.54-5.97,66.36-4.69,100.97,1.04,22.08,4.32,57.61,16.03,104.42,31.13,34.26,10.14,71.2,9.76,111.31-3.01,11.09-3.5,20.26-9.33,26.99-18.12l1.61-14.96Z"/>
      <path class="cls-4" d="M140.61,44.64c-40.59-9.5-82.52-9.93-125.01-3.2C81.22,8.31,184.87-3.54,274.03.89c33.97.85,68.22,6.34,87.12,28.41,6.82,8.38,8.48,18.32,4.08,26.06-10.06,16.78-41.27,21.11-61.7,24.15s-57.44-.13-83.66-8.72c-26.49-9.79-54.72-21.01-79.08-26.1l-.17-.04Z"/>
      <path class="cls-3" d="M365.9,63.3c-6.73,8.79-15.9,14.62-26.99,18.12-40.11,12.77-77.05,13.15-111.31,3.01-46.81-15.1-82.33-26.82-104.42-31.13-34.61-5.73-68.43-7.01-100.97-1.04-8.53,1.23-15.31,3.57-20.25,7.08l1.85,13.88s5.81,49.44,6.85,52.5c.71,1.8,3.4,2.65,7.14,3,28.01,3.5,74.54,4.48,123.43,5.14,50.95.6,171.87-1.78,174.41-1.83,2.26-.04,29.81-1.2,42.84-6.67,4.17-.62,5.46-5.72,4.1-14.96l3.33-47.09Z"/>
      <path class="cls-1" d="M362.57,110.39c28.69,38.55-149.66,34.77-343.17,27.89-11.21,2.85-17.45,6.01-17.44,9.31.03,12.35,87.2,22.17,194.69,21.92,49.06-.11,93.87-2.3,128.09-5.82l44.61-16.3c34.72-6.94,35.95-20.61-6.77-37.01Z"/>
      <path class="cls-2" d="M370.03,147.15c12.7-11.74,7.22-24.09-7.46-36.76v8.83c0,2.69-1.62,5.09-4.1,6.13-13.03,5.47-40.58,6.63-42.84,6.67-2.54.05-123.47,2.43-174.41,1.83-48.89-.66-95.42-1.64-123.43-5.14l.99,10.69c1.31,10.16,34.04,12.34,68.67,14.04,74.19,3.31,144.85,3.24,210.38-1.76.29-.02.58-.04.86-.04,10.09-.16,15.9,2.09,20.36,5.12,1.83,1.24,3.35,2.9,4.48,4.8l1.21,2.14c15.13-2.22,30.24-7.31,45.29-16.55Z"/>
    </g>
  </g>
</svg>