<?xml version="1.0" encoding="UTF-8"?>
<svg id="Calque_2" data-name="Calque 2" xmlns="http://www.w3.org/2000/svg" viewBox="0 0 203.94 349.68">
  <defs>
    <style>
      .cls-1 {
        fill: #b7b6b4;
      }

      .cls-2 {
        fill: #616264;
      }

      .cls-3 {
        fill: #cac9c6;
      }

      .cls-4 {
        fill: #ebeaea;
      }
    </style>
  </defs>
  <g id="Olympia">
    <g>
      <path class="cls-2" d="M.07,324.03c-.85-1.11,6.63-2.65,6.63-2.65l41.13,7.96,137.54-7.96s18.57,11.96,18.57,15.48-120.6,12.82-136.21,12.82S.92,325.14.07,324.03Z"/>
      <polygon class="cls-3" points="48.68 0 48.68 341.37 185.47 332.3 185.47 59.92 164.29 19.97 48.68 0"/>
      <polygon class="cls-2" points="87.26 220.7 94.26 220.7 177.36 222.52 177.36 242.92 93.89 242.92 87.26 242.92 87.26 220.7"/>
      <rect class="cls-4" x="87.26" y="220.7" width="7" height="22.22"/>
      <polygon class="cls-1" points="87.26 338.81 87.26 242.92 163.82 242.92 163.82 333.73 87.26 338.81"/>
      <polygon class="cls-2" points="48.68 0 48.68 40.35 185.47 59.92 164.29 19.97 48.68 0"/>
      <polyline class="cls-4" points="48.68 0 48.68 341.37 6.7 321.38 6.68 36.15 48.68 0"/>
    </g>
  </g>
</svg>