<?xml version="1.0" encoding="UTF-8"?>
<svg id="Calque_2" data-name="Calque 2" xmlns="http://www.w3.org/2000/svg" viewBox="0 0 396.65 197.6">
  <defs>
    <style>
      .cls-1 {
        fill: #b7b6b4;
      }

      .cls-2 {
        fill: #616264;
      }

      .cls-3 {
        fill: #cac9c6;
      }

      .cls-4 {
        fill: #ebeaea;
      }
    </style>
  </defs>
  <g id="SDF">
    <g>
      <path class="cls-1" d="M6.62,83.18c-3.71,5.21-5.94,10.78-6.49,16.67-3.96,42.38,80.32,84.93,188.24,95.02,99.32,9.29,171.23-4.75,200.03-48.64,16.16-24.63,4.5-39.88-.89-52.45L6.62,83.18Z"/>
      <path class="cls-2" d="M387.52,93.7L9.56,83.18c11.57,37.88,86.64,76.38,181.62,90.46,98.67,14.63,171.23,4.48,202.36-37.8.23-.31.44-.62.66-.93,6.76-18.25-2.16-30.68-6.68-41.22Z"/>
      <path class="cls-3" d="M53.19,112.93C-64.7,65.11,46.98,16.36,127.68,2.98,146.26-.1,165.16-.71,183.94.78c72.2,5.74,213.17,8.53,212.71,73.52-.09,12.37-5.69,24.08-14.83,32.57-71.64,66.52-239.36,33.82-328.63,6.06Z"/>
      <path class="cls-2" d="M115.89,93.2c-60.62-24.99.39-50.49,40.8-56.35,7.66-1.11,15.44-1.3,23.15-.65,35.61,2.99,107.67,4.03,107.44,37.4-.04,6.28-2.84,12.21-7.4,16.52-35.75,33.75-119.44,17.16-163.99,3.07Z"/>
      <path class="cls-4" d="M139.56,87.77c-44.44-18.32.29-37.02,29.91-41.31,5.62-.81,11.32-.95,16.97-.48,26.1,2.19,78.93,2.96,78.76,27.42-.03,4.6-2.08,8.95-5.43,12.11-26.21,24.74-87.56,12.58-120.22,2.25Z"/>
      <path class="cls-1" d="M259.91,85.52c1.16-1.1,2.16-2.35,2.98-3.7,0,0-91.11-13.48-98-12.59s-31.13,15.83-31.13,15.83c1.77.9,3.74,1.81,5.93,2.71,32.66,10.32,94.01,22.49,120.22-2.25Z"/>
    </g>
  </g>
</svg>