<?xml version="1.0" encoding="UTF-8"?>
<svg id="Calque_2" data-name="Calque 2" xmlns="http://www.w3.org/2000/svg" viewBox="0 0 473.71 232.67">
  <defs>
    <style>
      .cls-1 {
        fill: #616264;
      }

      .cls-2 {
        fill: #cac9c6;
      }

      .cls-3 {
        fill: #ebeaea;
      }
    </style>
  </defs>
  <g id="Zenith">
    <g>
      <path class="cls-2" d="M159.22,216.91s36.67,12.06,65.36,12.54c28.69.48,181.85,3.22,193.88,3.22s55.25-2,55.25-18.83-79.29-19.82-79.29-19.82l-235.2-2.12v25.01Z"/>
      <polygon class="cls-3" points="293.56 0 396.25 32.47 396.25 115.85 396.25 212.82 293.56 214.58 293.56 0"/>
      <polygon class="cls-3" points="0 130.77 161.04 114.22 161.04 217.65 0 200.54 0 130.77"/>
      <path class="cls-1" d="M0,130.77s41.69-20.62,51.34-23.48c9.65-2.85,109.7-14.26,109.7-14.26v21.2L0,130.77Z"/>
      <polygon class="cls-2" points="161.04 39.93 293.56 0 293.56 214.58 161.04 208.87 161.04 39.93"/>
      <polygon class="cls-3" points="161.04 160.93 161.04 114.22 186.48 111.9 186.48 209.97 161.04 208.87 161.04 160.93"/>
      <polygon class="cls-3" points="306.25 111.62 412.93 111.14 412.93 92.1 351.89 90.22 342.31 90.06 306.25 90.06 306.25 111.62"/>
      <polygon class="cls-1" points="350.8 108.19 282.03 108.19 208.07 112.99 208.78 145.87 421.43 144.23 421.43 111.69 360.39 108.48 350.8 108.19"/>
      <polygon class="cls-3" points="310.44 180.62 304.85 173.9 344.23 173.9 344.23 180.62 310.44 180.62"/>
      <polygon class="cls-3" points="356.01 180.1 350.42 173.39 389.8 173.39 389.8 180.1 356.01 180.1"/>
      <polygon class="cls-3" points="186.48 209.97 175.89 221.69 161.04 217.65 161.04 208.87 186.48 209.97"/>
    </g>
  </g>
</svg>